<?xml version="1.0" encoding="utf-8"?>
<!-- Generator: Adobe Illustrator 16.0.0, SVG Export Plug-In . SVG Version: 6.00 Build 0)  -->
<!DOCTYPE svg PUBLIC "-//W3C//DTD SVG 1.1//EN" "http://www.w3.org/Graphics/SVG/1.1/DTD/svg11.dtd">
<svg version="1.1" id="Layer_1" xmlns="http://www.w3.org/2000/svg" xmlns:xlink="http://www.w3.org/1999/xlink" x="0px" y="0px"
	 width="180px" height="50px" viewBox="0 0 180 50" enable-background="new 0 0 180 50" xml:space="preserve">
<g>
	<g>
		<path d="M144.294,11.95c0-0.094-0.008-0.185-0.013-0.273c-0.052-0.621-0.291-1.145-0.709-1.564
			c-0.479-0.488-1.102-0.729-1.864-0.729h-5.829h-3.772c-0.883,0-1.707,0.313-2.473,0.947c-0.76,0.631-1.229,1.395-1.412,2.29
			l-2.059,9.722c-0.047,0.228-0.07,0.451-0.07,0.67c0,0.744,0.247,1.354,0.732,1.842c0.49,0.484,1.114,0.725,1.874,0.725h7.18h5.626
			c0.044-0.214,0.064-0.432,0.064-0.644c0-0.741-0.238-1.357-0.729-1.855c-0.485-0.491-1.108-0.737-1.876-0.737h-3.085h-6.517
			l0.688-3.24h5.829h3.772c0.886,0,1.707-0.32,2.468-0.951c0.763-0.631,1.235-1.395,1.417-2.29l0.688-3.24
			c0.025-0.137,0.047-0.27,0.057-0.403C144.286,12.126,144.294,12.038,144.294,11.95 M140.334,15.86h-4.455h-5.146l0.686-3.24h4.46
			h5.144L140.334,15.86z"/>
		<path d="M159.105,15.86c0.883,0,1.705-0.317,2.46-0.946c0.752-0.637,1.229-1.401,1.428-2.294c0.043-0.231,0.069-0.464,0.069-0.695
			c0-0.738-0.241-1.345-0.72-1.826c-0.482-0.48-1.104-0.716-1.864-0.716h-9.604c-0.883,0-1.705,0.313-2.47,0.947
			c-0.758,0.631-1.235,1.395-1.415,2.29l-1.368,6.481l-1.341,6.425l-0.01,0.052h0.01c0.875,0,1.694-0.315,2.444-0.946
			c0.758-0.631,1.225-1.395,1.407-2.29l0.688-3.24l1.368-6.481h9.602L159.105,15.86z"/>
		<path d="M100.92,12.62c0.052-0.231,0.072-0.464,0.072-0.695c0-0.271-0.033-0.519-0.1-0.758c-0.113-0.398-0.326-0.749-0.631-1.055
			c-0.491-0.488-1.115-0.729-1.876-0.729H85.607c-0.043,0.228-0.067,0.459-0.067,0.692c0,0.724,0.239,1.331,0.719,1.815
			c0.478,0.488,1.102,0.729,1.863,0.729h9.6l-0.687,3.24h-9.597c-0.883,0-1.7,0.313-2.447,0.936
			c-0.748,0.626-1.228,1.397-1.442,2.306l-1.051,5.049l-0.295,1.428c0.097,0,0.196,0,0.295-0.011
			c0.77-0.062,1.493-0.374,2.163-0.936c0.75-0.631,1.221-1.395,1.404-2.29l0.687-3.24h9.602c0.884,0,1.703-0.313,2.452-0.938
			c0.758-0.623,1.232-1.395,1.433-2.303l0.655-3.081L100.92,12.62z"/>
		<path d="M103.602,9.383l-2.054,9.719l-0.655,3.085l-0.03,0.155c-0.05,0.228-0.072,0.451-0.072,0.67
			c0,0.276,0.033,0.531,0.103,0.771c0.113,0.406,0.321,0.764,0.63,1.066c0.486,0.488,1.111,0.729,1.876,0.729l1.349-6.477
			l1.373-6.481c0.045-0.231,0.067-0.454,0.067-0.67c0-0.744-0.239-1.354-0.72-1.838C104.986,9.624,104.361,9.383,103.602,9.383"/>
		<path d="M122.142,12.62l-0.686,3.24h-9.604c-0.885,0-1.697,0.313-2.447,0.936c-0.747,0.626-1.224,1.397-1.438,2.306l-0.686,3.24
			c-0.047,0.215-0.072,0.43-0.072,0.649c0,0.754,0.247,1.374,0.735,1.858c0.488,0.488,1.111,0.729,1.871,0.729h12.807
			c0.04-0.214,0.066-0.429,0.066-0.644c0-0.745-0.244-1.357-0.734-1.855c-0.485-0.491-1.109-0.737-1.872-0.737h-9.601l0.685-3.24
			h9.602c0.886,0,1.702-0.313,2.457-0.938c0.755-0.623,1.23-1.395,1.431-2.303l1.346-6.478c-0.881,0-1.702,0.313-2.457,0.947
			C122.791,10.961,122.318,11.725,122.142,12.62"/>
		<path d="M82.798,9.383h-0.3H69.993c-0.885,0-1.704,0.313-2.458,0.947c-0.754,0.631-1.23,1.395-1.428,2.29l-0.686,3.24
			c-0.046,0.231-0.072,0.452-0.072,0.674c0,0.754,0.243,1.37,0.723,1.848c0.481,0.479,1.103,0.72,1.863,0.72h9.601l-0.683,3.24
			H64.049c-0.045,0.228-0.065,0.459-0.065,0.693c0,0.738,0.241,1.347,0.729,1.828c0.488,0.478,1.111,0.715,1.873,0.715h9.602
			c0.884,0,1.705-0.312,2.459-0.936c0.754-0.625,1.225-1.393,1.407-2.301l0.687-3.24c0.061-0.248,0.091-0.488,0.091-0.72
			c0-0.727-0.245-1.326-0.735-1.802c-0.485-0.479-1.11-0.72-1.872-0.72h-9.606l0.688-3.24h9.604c0.883,0,1.706-0.309,2.467-0.936
			c0.499-0.407,0.871-0.875,1.12-1.404C82.633,9.997,82.731,9.699,82.798,9.383"/>
	</g>
	<g>
		<path d="M68.387,31.712c-0.432,0-0.778,0.078-1.045,0.232c-0.267,0.154-0.472,0.34-0.626,0.566
			c-0.154,0.219-0.261,0.46-0.316,0.728c-0.056,0.266-0.084,0.507-0.084,0.73s0.028,0.466,0.084,0.732
			c0.055,0.267,0.162,0.51,0.316,0.729c0.154,0.225,0.359,0.411,0.626,0.565c0.268,0.154,0.614,0.231,1.045,0.231h10.199
			c0.245,0,0.455,0.088,0.626,0.26c0.172,0.176,0.259,0.381,0.259,0.63c0,0.246-0.087,0.457-0.259,0.63
			c-0.172,0.172-0.381,0.26-0.626,0.26H67.798c-0.507,0-0.958-0.125-1.353-0.373c-0.393-0.247-0.729-0.564-1.008-0.951
			c-0.276-0.388-0.489-0.824-0.637-1.304c-0.151-0.484-0.225-0.952-0.225-1.409c0-0.468,0.079-0.94,0.231-1.415
			c0.156-0.478,0.379-0.908,0.677-1.293c0.295-0.391,0.652-0.71,1.074-0.955c0.418-0.247,0.895-0.371,1.425-0.371h10.605
			c0.245,0,0.455,0.087,0.626,0.26c0.172,0.17,0.259,0.383,0.259,0.628c0,0.25-0.087,0.459-0.259,0.631
			c-0.172,0.171-0.381,0.259-0.626,0.259H68.387z M78.439,33.339c0.172,0.175,0.259,0.384,0.259,0.63
			c0,0.248-0.087,0.457-0.259,0.629c-0.176,0.172-0.381,0.261-0.63,0.261h-9.217c-0.246,0-0.456-0.089-0.628-0.261
			s-0.259-0.381-0.259-0.629c0-0.246,0.087-0.455,0.259-0.63c0.172-0.172,0.382-0.26,0.628-0.26h9.217
			C78.058,33.079,78.263,33.167,78.439,33.339z"/>
		<path d="M83.083,33.079h4.274c0.643,0,1.272-0.083,1.887-0.248c0.618-0.17,1.221-0.385,1.806-0.654
			c0.586-0.275,1.146-0.583,1.682-0.927c0.537-0.347,1.054-0.699,1.549-1.056c0.211-0.173,0.417-0.26,0.627-0.26
			c0.246,0,0.457,0.087,0.635,0.26c0.169,0.17,0.256,0.383,0.256,0.628c0,0.176-0.052,0.324-0.148,0.455
			c-0.098,0.131-0.217,0.242-0.352,0.341c-0.319,0.249-0.627,0.48-0.928,0.694c-0.293,0.219-0.59,0.417-0.889,0.602
			c-0.292,0.185-0.601,0.367-0.914,0.537c-0.313,0.174-0.651,0.346-1.009,0.518c0.357,0.175,0.696,0.346,1.009,0.518
			c0.313,0.176,0.622,0.352,0.914,0.536c0.299,0.188,0.596,0.387,0.889,0.605c0.301,0.213,0.608,0.445,0.928,0.693
			c0.135,0.097,0.254,0.209,0.352,0.341c0.097,0.128,0.148,0.28,0.148,0.454c0,0.246-0.087,0.457-0.256,0.63
			c-0.178,0.172-0.389,0.26-0.635,0.26c-0.21,0-0.416-0.088-0.627-0.26c-0.508-0.37-1.026-0.729-1.563-1.073
			c-0.537-0.348-1.095-0.658-1.678-0.927c-0.576-0.27-1.177-0.488-1.795-0.65c-0.615-0.157-1.244-0.237-1.887-0.237h-4.274v2.258
			c0,0.246-0.085,0.457-0.259,0.63c-0.172,0.172-0.376,0.26-0.611,0.26c-0.247,0-0.456-0.088-0.628-0.26
			c-0.171-0.173-0.259-0.384-0.259-0.63v-6.294c0-0.245,0.088-0.458,0.259-0.628c0.172-0.173,0.376-0.26,0.61-0.26
			c0.247,0,0.457,0.087,0.629,0.26c0.174,0.17,0.259,0.383,0.259,0.628V33.079z"/>
		<path d="M99.221,37.672c-0.185,0.219-0.416,0.334-0.686,0.334c-0.247,0-0.457-0.088-0.629-0.26
			c-0.172-0.173-0.259-0.384-0.259-0.63c0-0.223,0.059-0.404,0.187-0.538l4.496-6.052c0.209-0.283,0.486-0.515,0.832-0.693
			c0.345-0.178,0.717-0.27,1.109-0.27c0.373,0,0.725,0.084,1.056,0.242c0.334,0.159,0.604,0.381,0.813,0.664l4.5,6.017
			c0.074,0.088,0.133,0.183,0.182,0.286c0.052,0.105,0.074,0.219,0.074,0.344c0,0.246-0.084,0.457-0.256,0.63
			c-0.175,0.172-0.386,0.26-0.633,0.26c-0.292,0-0.528-0.119-0.7-0.351l-4.312-5.758c-0.087-0.102-0.192-0.209-0.323-0.324
			c-0.132-0.116-0.265-0.178-0.401-0.178c-0.133,0-0.267,0.062-0.395,0.178c-0.129,0.115-0.231,0.223-0.306,0.324L99.221,37.672z"/>
		<path d="M125.664,35.531c0.347,0.241,0.698,0.504,1.057,0.79c0.138,0.097,0.254,0.209,0.352,0.341
			c0.103,0.128,0.15,0.28,0.15,0.454c0,0.246-0.09,0.457-0.26,0.63c-0.174,0.172-0.384,0.26-0.631,0.26
			c-0.211,0-0.419-0.088-0.627-0.26c-0.506-0.37-1.027-0.729-1.556-1.073c-0.531-0.348-1.084-0.658-1.659-0.927
			c-0.569-0.27-1.168-0.488-1.784-0.65c-0.619-0.157-1.259-0.237-1.924-0.237h-3.685c-0.156,0.024-0.295,0.1-0.408,0.221
			c-0.107,0.125-0.161,0.276-0.161,0.464v1.573c0,0.246-0.091,0.457-0.27,0.63c-0.18,0.172-0.389,0.26-0.625,0.26
			c-0.244,0-0.451-0.088-0.623-0.26c-0.173-0.173-0.263-0.384-0.263-0.63v-1.777c0-0.307,0.063-0.6,0.178-0.88
			c0.115-0.279,0.271-0.516,0.473-0.724c0.194-0.201,0.432-0.359,0.7-0.48c0.275-0.115,0.568-0.176,0.889-0.176h9.81
			c0.185,0,0.352-0.062,0.49-0.192c0.144-0.128,0.216-0.294,0.216-0.491c0-0.186-0.072-0.343-0.216-0.479
			c-0.139-0.137-0.306-0.204-0.49-0.204h-11.163c-0.244,0-0.451-0.088-0.623-0.259c-0.173-0.172-0.263-0.381-0.263-0.631
			c0-0.245,0.09-0.458,0.263-0.628c0.172-0.173,0.379-0.26,0.623-0.26h11.089c0.346,0,0.67,0.063,0.972,0.196
			c0.302,0.126,0.568,0.305,0.797,0.527c0.226,0.22,0.406,0.478,0.534,0.777c0.131,0.294,0.197,0.617,0.197,0.96
			c0,0.344-0.066,0.667-0.197,0.962c-0.128,0.297-0.309,0.557-0.534,0.778c-0.229,0.223-0.495,0.4-0.797,0.526
			c-0.302,0.13-0.626,0.196-0.972,0.196h-0.075C124.981,35.069,125.323,35.294,125.664,35.531z"/>
		<path d="M143.317,30.194c0.175,0.17,0.263,0.383,0.263,0.628c0,0.25-0.088,0.459-0.263,0.631
			c-0.169,0.171-0.379,0.259-0.623,0.259h-5.479v5.404c0,0.246-0.088,0.457-0.26,0.63c-0.172,0.172-0.386,0.26-0.627,0.26
			c-0.252,0-0.457-0.088-0.631-0.26c-0.173-0.173-0.26-0.384-0.26-0.63v-5.404h-5.549c-0.223-0.023-0.416-0.122-0.576-0.286
			c-0.161-0.165-0.243-0.37-0.243-0.604c0-0.245,0.091-0.458,0.263-0.628c0.172-0.173,0.379-0.26,0.626-0.26h12.736
			C142.938,29.935,143.148,30.021,143.317,30.194z"/>
	</g>
	<path fill="#F70D24" d="M17.429,11.804h-1.695c-0.786,0-1.423-0.641-1.423-1.426l0,0c0-0.788,0.637-1.428,1.423-1.428h1.695
		c0.786,0,1.424,0.64,1.424,1.428l0,0C18.853,11.163,18.214,11.804,17.429,11.804z"/>
	<path fill="#F70D24" d="M10.681,32.268H8.987c-0.785,0-1.424-0.64-1.424-1.425l0,0c0-0.79,0.639-1.428,1.424-1.428h1.694
		c0.786,0,1.425,0.638,1.425,1.428l0,0C12.105,31.628,11.466,32.268,10.681,32.268z"/>
	<path fill="#F70D24" d="M10.681,18.623H8.987c-0.785,0-1.424-0.638-1.424-1.422l0,0c0-0.79,0.639-1.428,1.424-1.428h1.694
		c0.786,0,1.425,0.638,1.425,1.428l0,0C12.105,17.985,11.466,18.623,10.681,18.623z"/>
	<path fill="#F70D24" d="M10.681,25.445H5.096c-0.787,0-1.425-0.639-1.425-1.424l0,0c0-0.788,0.638-1.427,1.425-1.427h5.585
		c0.786,0,1.425,0.639,1.425,1.427l0,0C12.105,24.807,11.466,25.445,10.681,25.445z"/>
	<g>
		<path fill="#F70D24" d="M56.294,8.917H27.041c-0.111,0-0.206,0.015-0.298,0.033h-5.295c-0.743,0-1.41,0.546-1.479,1.286
			c-0.081,0.851,0.585,1.567,1.417,1.567h1.957h0.09c0,0,0,0.002-0.002,0.002c1.083,0.051,1.943,0.964,1.89,2.074
			c-0.046,1.071-0.986,1.894-2.058,1.894h-3.634h-4.706c-0.745,0-1.412,0.543-1.481,1.286c-0.08,0.849,0.585,1.563,1.417,1.563
			h3.293h0.012c0.844,0,1.623,0.53,1.878,1.337c0.439,1.372-0.574,2.635-1.878,2.635h-0.959h-2.599
			c-0.784,0-1.424,0.639-1.424,1.427c0,0.785,0.64,1.424,1.424,1.424h2.592h0.965c1.094,0,1.98,0.889,1.98,1.984
			c0,1.098-0.886,1.985-1.98,1.985h-0.054h-3.187c-0.745,0-1.412,0.546-1.481,1.287c-0.08,0.849,0.585,1.565,1.417,1.565h4.689
			h3.492c1.067,0,2.001,0.805,2.06,1.868c0.063,1.099-0.768,2.014-1.827,2.094c0,0.004,0.006,0.007,0.006,0.007h-0.157h-3.208
			c-0.742,0-1.404,0.547-1.475,1.287c-0.084,0.849,0.582,1.565,1.417,1.565h6.692c0.832-1.384,2.341-2.309,4.071-2.309
			c1.707,0,3.2,0.904,4.038,2.255h10.82c0.838-1.351,2.331-2.255,4.035-2.255c1.709,0,3.202,0.904,4.041,2.255h2.754
			c1.045-0.004,1.893-0.883,1.893-1.967V10.887C58.198,9.8,57.347,8.917,56.294,8.917z"/>
	</g>
	<path fill="#FFFFFF" d="M52.168,37.601l1.49-22.852h-5.605l1.957,22.063C50.803,36.896,51.537,37.177,52.168,37.601z"/>
	<rect x="47.601" y="6.745" fill="#FFFFFF" width="6.51" height="5.832"/>
	<path d="M30.618,38.393c-1.734,0-3.141,1.407-3.141,3.144c0,1.735,1.407,3.143,3.141,3.143c1.737,0,3.14-1.407,3.14-3.143
		C33.758,39.8,32.355,38.393,30.618,38.393z M30.618,43.13c-0.879,0-1.591-0.715-1.591-1.594c0-0.881,0.711-1.592,1.591-1.592
		c0.882,0,1.593,0.711,1.593,1.592C32.211,42.415,31.5,43.13,30.618,43.13z"/>
	<g>
		<g>
			<path d="M158.784,27.294c-0.085,0.012-0.172,0.006-0.257-0.01l-1.877-0.407c-0.198-0.043-0.367-0.162-0.475-0.329
				c-0.113-0.172-0.149-0.377-0.105-0.573l0.708-3.275L157,22.745l-0.71,3.276c-0.03,0.14-0.007,0.282,0.07,0.401
				c0.077,0.121,0.194,0.206,0.336,0.232l1.874,0.407c0.291,0.063,0.576-0.119,0.638-0.407l0.904-4.168
				c0.059-0.29-0.124-0.573-0.408-0.638l-1.878-0.406c-0.139-0.028-0.28-0.003-0.402,0.072c-0.122,0.079-0.201,0.2-0.231,0.338
				l-0.224-0.048c0.046-0.198,0.161-0.365,0.333-0.479c0.17-0.107,0.373-0.144,0.57-0.101l1.875,0.404
				c0.411,0.091,0.67,0.492,0.583,0.903l-0.904,4.167C159.359,27.024,159.092,27.251,158.784,27.294"/>
			<path d="M158.832,26.221c-0.025,0.002-0.051,0.002-0.07-0.004l-1.883-0.407c-0.121-0.023-0.192-0.141-0.17-0.26l0.789-3.629
				c0.028-0.122,0.141-0.195,0.262-0.169l1.874,0.403c0.06,0.015,0.105,0.049,0.14,0.099c0.03,0.051,0.043,0.108,0.03,0.165
				l-0.785,3.629c-0.013,0.058-0.045,0.105-0.097,0.142C158.895,26.206,158.866,26.217,158.832,26.221 M156.931,25.594l1.874,0.405
				l0.78-3.631l-1.874-0.397L156.931,25.594z"/>
			<path d="M157.98,26.486c0.031-0.139-0.057-0.276-0.195-0.307c-0.142-0.029-0.279,0.057-0.311,0.198
				c-0.031,0.141,0.062,0.277,0.195,0.307C157.811,26.715,157.952,26.629,157.98,26.486"/>
			<polygon points="160.748,28.507 160.281,27.645 164.768,25.193 165.234,26.056 164.613,26.393 164.511,26.196 164.932,25.965 
				164.678,25.497 160.587,27.731 160.841,28.203 163.884,26.54 163.992,26.736 			"/>
			<rect x="161.925" y="26.986" transform="matrix(0.4784 0.8781 -0.8781 0.4784 108.454 -128.391)" width="0.757" height="0.225"/>
			
				<rect x="160.86" y="27.036" transform="matrix(0.4764 0.8792 -0.8792 0.4764 108.7473 -126.9604)" width="0.225" height="1.582"/>
			<rect x="154.773" y="19.774" transform="matrix(0.7898 0.6133 -0.6133 0.7898 44.9124 -90.7593)" width="0.221" height="0.758"/>
			<rect x="153.677" y="21.199" transform="matrix(0.7968 0.6042 -0.6042 0.7968 44.281 -88.5346)" width="0.223" height="0.757"/>
			<polygon points="153.856,20.637 153.253,20.174 153.395,19.996 153.992,20.458 			"/>
			<polygon points="155.281,21.735 154.676,21.271 154.817,21.092 155.415,21.56 			"/>
			<rect x="150.468" y="36.411" transform="matrix(0.7905 0.6124 -0.6124 0.7905 54.0753 -84.5138)" width="0.225" height="0.759"/>
			<rect x="149.37" y="37.834" transform="matrix(0.7896 0.6136 -0.6136 0.7896 54.9038 -83.6886)" width="0.228" height="0.761"/>
			<rect x="148.938" y="36.843" transform="matrix(0.7922 0.6102 -0.6102 0.7922 53.5718 -83.4381)" width="0.762" height="0.223"/>
			<rect x="150.363" y="37.939" transform="matrix(0.7933 0.6088 -0.6088 0.7933 54.3267 -83.9116)" width="0.757" height="0.226"/>
			<path d="M152.444,26.248l-0.93-0.719l0.722-0.933l0.932,0.718L152.444,26.248z M151.827,25.487l0.581,0.449l0.443-0.579
				l-0.579-0.443L151.827,25.487z"/>
			<path d="M159.998,37.534l-0.932-0.722l0.725-0.932l0.932,0.717L159.998,37.534z M159.383,36.772l0.58,0.444l0.444-0.576
				l-0.581-0.446L159.383,36.772z"/>
			<path d="M151.808,35.813c-0.357,0.045-0.686-0.207-0.729-0.565c-0.046-0.354,0.205-0.68,0.564-0.726
				c0.354-0.048,0.681,0.205,0.725,0.561C152.416,35.436,152.164,35.762,151.808,35.813 M151.672,34.743
				c-0.236,0.026-0.401,0.245-0.37,0.478c0.03,0.235,0.244,0.399,0.478,0.368c0.234-0.029,0.395-0.246,0.369-0.478
				C152.118,34.881,151.902,34.711,151.672,34.743"/>
			<path d="M159.714,20.396c-0.354,0.049-0.681-0.203-0.728-0.562c-0.043-0.358,0.206-0.681,0.561-0.729
				c0.359-0.047,0.686,0.206,0.728,0.563C160.322,20.024,160.07,20.349,159.714,20.396 M159.575,19.328
				c-0.231,0.032-0.396,0.245-0.367,0.478c0.03,0.231,0.244,0.401,0.478,0.368c0.23-0.031,0.397-0.246,0.367-0.476
				C160.027,19.462,159.812,19.3,159.575,19.328"/>
			<polygon points="166.415,35.911 161.69,34.749 161.747,34.534 166.248,35.638 167.011,32.537 161.323,31.143 160.563,34.242 
				161.022,34.358 160.97,34.574 160.294,34.409 161.157,30.87 167.284,32.375 			"/>
			<path d="M163.925,34.655c-0.148,0.017-0.296,0.007-0.441-0.027c-0.309-0.077-0.57-0.266-0.739-0.541
				c-0.165-0.277-0.217-0.6-0.142-0.911c0.077-0.31,0.27-0.571,0.547-0.74c0.272-0.165,0.596-0.215,0.903-0.139
				c0.313,0.074,0.578,0.267,0.742,0.542c0.167,0.277,0.217,0.6,0.145,0.91c-0.08,0.311-0.274,0.572-0.548,0.741
				C164.249,34.577,164.087,34.635,163.925,34.655 M163.645,32.493c-0.131,0.02-0.265,0.064-0.38,0.135
				c-0.224,0.137-0.38,0.35-0.441,0.603s-0.018,0.512,0.113,0.738c0.136,0.224,0.352,0.377,0.601,0.44
				c0.254,0.064,0.516,0.021,0.739-0.111c0.224-0.137,0.378-0.351,0.441-0.603c0.063-0.253,0.021-0.515-0.115-0.738
				c-0.134-0.224-0.346-0.383-0.601-0.44C163.881,32.486,163.764,32.479,163.645,32.493"/>
			<path d="M165.069,32.063l-1.805-0.443l0.229-0.928l1.802,0.439L165.069,32.063z M163.534,31.457l1.372,0.333l0.12-0.492
				l-1.368-0.332L163.534,31.457z"/>
			<rect x="165.367" y="32.097" transform="matrix(0.9712 0.2385 -0.2385 0.9712 12.8343 -38.4841)" width="0.225" height="3.415"/>
			<polygon points="162.849,31.399 162.631,31.347 162.713,31.005 161.93,30.81 161.845,31.155 161.627,31.104 161.768,30.54 
				162.985,30.84 			"/>
			<path d="M169.354,35.58c-0.013,0-0.028,0.004-0.044,0.004c-0.121,0-0.233-0.063-0.301-0.165l-0.575-0.915
				c-0.063-0.102-0.068-0.23-0.015-0.34c0.051-0.111,0.161-0.183,0.28-0.195l1.204-0.12c0.13-0.015,0.259,0.05,0.331,0.163
				c0.072,0.114,0.074,0.259,0.003,0.37l-0.628,1.035C169.557,35.508,169.459,35.567,169.354,35.58 M168.714,34.192
				c-0.039,0.008-0.077,0.03-0.097,0.068c-0.017,0.043-0.014,0.085,0.007,0.124l0.575,0.917c0.026,0.033,0.062,0.057,0.11,0.057
				c0.044,0,0.085-0.023,0.108-0.062l0.626-1.032c0.028-0.042,0.026-0.091,0-0.133c-0.025-0.043-0.069-0.065-0.118-0.06l-1.204,0.12
				C168.72,34.192,168.72,34.192,168.714,34.192"/>
			<path d="M170.989,27.745c-0.181,0.024-0.357-0.022-0.501-0.128l-0.662-0.502c-0.149-0.11-0.244-0.271-0.265-0.453
				c-0.029-0.183,0.018-0.361,0.128-0.509l0.799-1.054c0.175-0.236,0.435-0.387,0.724-0.429c0.291-0.039,0.578,0.034,0.814,0.209
				c0.485,0.364,0.58,1.057,0.219,1.543l-0.522,0.69l-0.18-0.136l0.521-0.69c0.293-0.387,0.211-0.936-0.172-1.229
				c-0.385-0.286-0.938-0.209-1.227,0.176l-0.797,1.057c-0.074,0.098-0.105,0.215-0.087,0.34c0.015,0.122,0.079,0.231,0.18,0.307
				l0.659,0.496c0.098,0.074,0.222,0.106,0.342,0.087c0.124-0.017,0.234-0.075,0.306-0.179l0.178,0.137
				c-0.107,0.149-0.268,0.24-0.447,0.267C170.997,27.745,170.994,27.745,170.989,27.745"/>
			<polygon points="171.469,25.807 171.289,25.675 171.867,24.905 172.049,25.039 			"/>
			<path d="M171.875,26.727c-0.581-0.439-1.559-1.177-1.587-1.197l0.148-0.168l-0.074,0.084l0.074-0.088
				c0.044,0.036,0.967,0.729,1.577,1.19L171.875,26.727z"/>
			<path d="M166.293,29.941c-0.118,0.014-0.244-0.007-0.359-0.064c-0.296-0.151-0.416-0.525-0.262-0.821l0.795-1.545l1.087,0.563
				l-0.794,1.541c-0.069,0.145-0.198,0.253-0.357,0.304C166.37,29.929,166.328,29.935,166.293,29.941 M166.562,27.813l-0.692,1.344
				c-0.098,0.188-0.021,0.423,0.169,0.521c0.093,0.048,0.195,0.059,0.295,0.024c0.101-0.03,0.186-0.098,0.229-0.192l0.691-1.343
				L166.562,27.813z"/>
			<rect x="165.803" y="29.054" transform="matrix(0.8881 0.4597 -0.4597 0.8881 32.0199 -73.1833)" width="0.998" height="0.224"/>
			<path d="M167.327,28.207l-0.84-0.435l0.352-0.684l0.84,0.432L167.327,28.207z M166.791,27.675l0.441,0.23l0.144-0.284
				l-0.437-0.226L166.791,27.675z"/>
			<g>
				<g>
					<g>
						<g>
							<path d="M168.966,21.963c-0.139-0.109-0.216-0.281-0.211-0.457l0.03-0.809c0.004-0.032-0.01-0.063-0.04-0.083l-0.547-0.445
								c-0.026-0.021-0.06-0.026-0.091-0.021l-0.783,0.2c-0.172,0.043-0.354,0.003-0.493-0.108
								c-0.244-0.192-0.276-0.546-0.084-0.784l1.13-1.402c0.252-0.312,0.703-0.358,1.012-0.11l1.89,1.526
								c0.309,0.245,0.356,0.699,0.107,1.011l-1.132,1.399C169.562,22.12,169.207,22.159,168.966,21.963z M168.246,20.112
								l0.551,0.441c0.04,0.034,0.07,0.091,0.065,0.147l-0.027,0.809c-0.008,0.151,0.059,0.3,0.177,0.393
								c0.211,0.17,0.514,0.137,0.683-0.069l1.133-1.403c0.221-0.277,0.18-0.681-0.097-0.903l-1.891-1.522
								c-0.277-0.222-0.678-0.181-0.902,0.099l-1.129,1.397c-0.17,0.209-0.139,0.513,0.074,0.681
								c0.113,0.097,0.272,0.13,0.419,0.097l0.785-0.2C168.144,20.062,168.206,20.077,168.246,20.112z"/>
							<path d="M166.76,20.229c-0.216-0.214-0.236-0.562-0.044-0.803l1.133-1.398c0.128-0.157,0.311-0.256,0.508-0.277
								c0.201-0.025,0.398,0.035,0.556,0.159l1.889,1.529c0.16,0.124,0.257,0.304,0.281,0.507c0.02,0.202-0.039,0.398-0.162,0.557
								l-1.136,1.399c-0.1,0.127-0.246,0.204-0.399,0.221c-0.162,0.02-0.319-0.028-0.447-0.129l0,0
								c-0.141-0.12-0.226-0.303-0.218-0.488l0.025-0.809c0-0.022-0.006-0.041-0.023-0.053l-0.55-0.444
								c-0.013-0.012-0.033-0.016-0.054-0.012l-0.788,0.2c-0.183,0.043-0.378,0.003-0.521-0.117
								C166.791,20.258,166.778,20.243,166.76,20.229z M170.75,19.599c-0.013-0.015-0.031-0.027-0.046-0.042l-1.888-1.522
								c-0.126-0.102-0.285-0.146-0.441-0.13c-0.159,0.019-0.306,0.097-0.405,0.219l-1.131,1.403
								c-0.153,0.192-0.125,0.472,0.067,0.622c0.107,0.089,0.251,0.12,0.388,0.089l0.783-0.2c0.066-0.019,0.142,0,0.192,0.042
								l0.55,0.441c0.055,0.047,0.085,0.113,0.082,0.185l-0.027,0.805c-0.003,0.142,0.053,0.276,0.165,0.364
								c0.094,0.074,0.209,0.107,0.324,0.097c0.121-0.016,0.227-0.07,0.301-0.165l1.13-1.4c0.105-0.124,0.148-0.283,0.131-0.441
								C170.912,19.824,170.848,19.698,170.75,19.599z"/>
						</g>
					</g>
					<g>
						<g>
							<g>
								<path d="M168.149,19.342l-0.103-0.081c-0.02-0.014-0.021-0.036-0.008-0.051l0.498-0.619
									c0.013-0.017,0.038-0.021,0.056-0.007l0.103,0.081c0.017,0.017,0.017,0.039,0.004,0.056l-0.498,0.617
									C168.185,19.358,168.164,19.358,168.149,19.342z M168.124,19.227l0.04,0.034l0.449-0.561l-0.041-0.031L168.124,19.227z"/>
								<path d="M168.013,19.287c-0.013-0.01-0.021-0.03-0.023-0.046c0-0.021,0.006-0.042,0.016-0.055l0.503-0.622
									c0.023-0.032,0.075-0.038,0.109-0.011l0.103,0.081c0.03,0.026,0.035,0.076,0.01,0.111l-0.498,0.618
									c-0.013,0.015-0.03,0.027-0.055,0.027c-0.018,0.003-0.038-0.003-0.053-0.017l0,0l-0.104-0.081
									C168.015,19.29,168.015,19.29,168.013,19.287z"/>
							</g>
						</g>
						<g>
							<g>
								<path d="M168.613,19.294l-0.618-0.498c-0.016-0.015-0.019-0.037-0.006-0.054l0.08-0.101c0.016-0.019,0.038-0.021,0.06-0.007
									l0.613,0.498c0.018,0.013,0.018,0.037,0.003,0.056l-0.077,0.102C168.652,19.304,168.627,19.309,168.613,19.294z
									 M168.074,18.763l0.558,0.447l0.03-0.044l-0.555-0.447L168.074,18.763z"/>
								<path d="M167.967,18.819c-0.016-0.01-0.021-0.027-0.029-0.044c0-0.022,0.009-0.043,0.021-0.061l0.08-0.102
									c0.027-0.032,0.079-0.035,0.112-0.01l0.616,0.502c0.016,0.011,0.029,0.03,0.029,0.048c0.002,0.021-0.003,0.043-0.02,0.061
									l-0.078,0.102c-0.014,0.013-0.031,0.022-0.055,0.026c-0.021,0.006-0.041-0.004-0.054-0.017l0,0l-0.621-0.498
									C167.97,18.823,167.967,18.823,167.967,18.819z"/>
							</g>
						</g>
					</g>
					<g>
						<g>
							<g>
								<g>
									<path d="M169.325,19.946c-0.077-0.062-0.087-0.175-0.025-0.252c0.061-0.077,0.175-0.091,0.252-0.03
										c0.073,0.064,0.092,0.176,0.027,0.253C169.515,19.996,169.405,20.009,169.325,19.946z M169.502,19.725
										c-0.043-0.032-0.107-0.026-0.146,0.019c-0.033,0.041-0.025,0.107,0.016,0.144c0.047,0.034,0.113,0.028,0.146-0.014
										C169.557,19.826,169.549,19.76,169.502,19.725z"/>
									<path d="M169.281,19.96c-0.033-0.035-0.056-0.081-0.059-0.13c-0.008-0.059,0.01-0.115,0.043-0.162
										c0.077-0.095,0.216-0.107,0.312-0.034c0.043,0.037,0.077,0.091,0.079,0.148c0.008,0.058-0.01,0.115-0.047,0.164
										c-0.077,0.091-0.215,0.105-0.307,0.03C169.291,19.975,169.286,19.967,169.281,19.96z M169.484,19.76
										c-0.003,0-0.003-0.004-0.008-0.004l0,0c-0.026-0.021-0.066-0.017-0.087,0.01c-0.01,0.013-0.019,0.03-0.013,0.048
										c0.003,0.017,0.01,0.03,0.022,0.042c0.028,0.02,0.067,0.018,0.088-0.009C169.507,19.82,169.505,19.784,169.484,19.76z"/>
								</g>
							</g>
							<g>
								<g>
									<path d="M170.021,20.507c-0.077-0.063-0.09-0.176-0.03-0.253c0.064-0.076,0.177-0.091,0.254-0.026s0.088,0.174,0.028,0.253
										C170.211,20.556,170.096,20.571,170.021,20.507z M170.192,20.288c-0.04-0.038-0.107-0.03-0.142,0.017
										c-0.032,0.04-0.027,0.107,0.02,0.144c0.043,0.034,0.107,0.028,0.143-0.019C170.247,20.389,170.242,20.32,170.192,20.288z"
										/>
									<path d="M169.978,20.521c-0.034-0.034-0.057-0.081-0.064-0.129c-0.005-0.061,0.013-0.114,0.049-0.164
										c0.076-0.092,0.211-0.105,0.306-0.031c0.095,0.075,0.107,0.213,0.039,0.307c-0.08,0.095-0.217,0.111-0.312,0.036
										C169.987,20.533,169.98,20.529,169.978,20.521z M170.178,20.32c-0.005,0-0.005-0.002-0.008-0.002l0,0
										c-0.01-0.011-0.028-0.018-0.044-0.014c-0.021,0-0.033,0.01-0.043,0.02c-0.011,0.015-0.019,0.031-0.013,0.051
										c0.002,0.017,0.01,0.03,0.022,0.041c0.013,0.01,0.03,0.016,0.047,0.014c0.018-0.004,0.03-0.011,0.04-0.024
										c0.011-0.01,0.019-0.026,0.013-0.044C170.19,20.345,170.188,20.331,170.178,20.32z"/>
								</g>
							</g>
						</g>
						<g>
							<g>
								<g>
									<path d="M169.954,19.879c-0.077-0.063-0.093-0.174-0.028-0.251c0.062-0.077,0.175-0.088,0.252-0.029
										c0.077,0.063,0.087,0.176,0.025,0.252C170.142,19.928,170.031,19.939,169.954,19.879z M170.128,19.658
										c-0.043-0.034-0.107-0.026-0.143,0.013c-0.034,0.048-0.029,0.113,0.015,0.149c0.044,0.035,0.105,0.026,0.147-0.015
										C170.18,19.76,170.173,19.694,170.128,19.658z"/>
									<path d="M169.911,19.895c-0.034-0.035-0.06-0.081-0.063-0.133c-0.008-0.057,0.011-0.114,0.044-0.158
										c0.077-0.096,0.213-0.111,0.308-0.036c0.095,0.077,0.111,0.217,0.034,0.308c-0.074,0.096-0.211,0.113-0.309,0.036
										C169.924,19.904,169.913,19.9,169.911,19.895z M170.113,19.694c-0.008,0-0.008-0.002-0.008-0.002l0,0
										c-0.03-0.028-0.067-0.021-0.087,0.01c-0.013,0.01-0.019,0.026-0.019,0.043s0.011,0.033,0.023,0.044
										c0.015,0.011,0.031,0.017,0.049,0.015c0.018-0.004,0.03-0.011,0.043-0.025c0.011-0.013,0.013-0.029,0.013-0.046
										C170.128,19.719,170.123,19.705,170.113,19.694z"/>
								</g>
							</g>
							<g>
								<g>
									<path d="M169.395,20.573c-0.079-0.063-0.092-0.174-0.031-0.253c0.064-0.077,0.175-0.087,0.252-0.026
										c0.079,0.062,0.092,0.176,0.031,0.252C169.582,20.624,169.472,20.637,169.395,20.573z M169.569,20.352
										c-0.044-0.033-0.105-0.027-0.145,0.017c-0.035,0.044-0.027,0.112,0.016,0.145c0.044,0.037,0.111,0.03,0.146-0.013
										C169.62,20.455,169.612,20.389,169.569,20.352z"/>
									<path d="M169.351,20.592c-0.035-0.038-0.062-0.085-0.064-0.134c-0.008-0.059,0.014-0.117,0.049-0.16
										c0.075-0.095,0.214-0.109,0.312-0.038c0.04,0.041,0.069,0.092,0.074,0.149c0.011,0.061-0.01,0.114-0.044,0.162
										c-0.077,0.094-0.213,0.107-0.311,0.033C169.36,20.598,169.355,20.594,169.351,20.592z M169.552,20.389
										c-0.003,0-0.003-0.004-0.003-0.004l0,0c-0.017-0.01-0.034-0.017-0.052-0.013c-0.016,0.003-0.03,0.011-0.044,0.023
										c-0.01,0.01-0.013,0.026-0.013,0.044c0,0.019,0.01,0.034,0.023,0.043c0.03,0.021,0.068,0.018,0.093-0.009
										C169.577,20.448,169.571,20.412,169.552,20.389z"/>
								</g>
							</g>
						</g>
					</g>
					<g>
						<g>
							<path d="M168.824,20.298l-0.331-0.267c-0.016-0.016-0.018-0.039-0.005-0.057l0.071-0.09c0.016-0.02,0.041-0.022,0.054-0.01
								l0.331,0.268c0.021,0.014,0.021,0.038,0.003,0.058l-0.068,0.092C168.862,20.308,168.837,20.311,168.824,20.298z
								 M168.572,19.996l0.268,0.217l0.027-0.035l-0.271-0.218L168.572,19.996z"/>
							<path d="M168.463,20.055c-0.014-0.01-0.021-0.026-0.024-0.046c0-0.021,0.003-0.042,0.017-0.059l0.073-0.095
								c0.029-0.031,0.077-0.035,0.114-0.012l0.328,0.269c0.016,0.014,0.025,0.03,0.028,0.051c0,0.021-0.003,0.044-0.018,0.061
								l-0.075,0.091c-0.025,0.034-0.077,0.037-0.109,0.01l0,0l-0.332-0.267C168.465,20.058,168.463,20.058,168.463,20.055z"/>
						</g>
					</g>
				</g>
				<g>
					<g>
						<path d="M169.784,18.765c-0.015-0.012-0.015-0.035-0.005-0.054l0.344-0.424c0.014-0.017,0.034-0.017,0.05-0.003
							c0.018,0.013,0.018,0.033,0.007,0.052l-0.341,0.427C169.828,18.775,169.803,18.779,169.784,18.765z"/>
						<path d="M169.754,18.789c-0.01-0.01-0.021-0.026-0.021-0.047c-0.002-0.021,0.005-0.042,0.018-0.055l0.339-0.423
							c0.013-0.017,0.033-0.028,0.052-0.03c0.021-0.004,0.041,0.002,0.057,0.02c0.019,0.013,0.028,0.03,0.028,0.051
							c0.005,0.021-0.002,0.04-0.014,0.057l-0.344,0.424c-0.028,0.03-0.077,0.038-0.107,0.011l0,0
							C169.759,18.796,169.759,18.792,169.754,18.789z"/>
					</g>
				</g>
			</g>
			<g>
				<path d="M170.149,31.17c-0.015,0.219,0.088,0.434,0.274,0.552l3.698,2.328c0.043,0.022,0.085,0.043,0.133,0.06
					c0.162,0.055,0.349,0.034,0.496-0.057l0.267-0.165c0.06-0.039,0.096-0.099,0.096-0.169c0-0.071-0.036-0.134-0.096-0.169
					l-0.298-0.188l1.598-2.525c0.013-0.021,0.016-0.049,0.01-0.074c-0.007-0.022-0.02-0.046-0.044-0.06l-3.851-2.427
					c-0.024-0.016-0.052-0.018-0.075-0.012c-0.025,0.004-0.049,0.024-0.062,0.045l-1.592,2.523l-0.224-0.14
					c-0.062-0.034-0.136-0.042-0.198-0.007c-0.058,0.027-0.103,0.092-0.104,0.157L170.149,31.17z M176.096,30.815l-1.537,2.445
					l-3.693-2.323l1.543-2.444L176.096,30.815z M172.229,32.025l0.74,0.464c-0.055,0.034-0.128,0.034-0.189-0.003l-0.463-0.293
					C172.261,32.156,172.227,32.092,172.229,32.025z M172.211,32.358l0.468,0.29c0.025,0.017,0.056,0.033,0.085,0.043
					c0.131,0.042,0.279,0.008,0.38-0.091l1.771,1.122l-0.267,0.161c-0.123,0.081-0.293,0.081-0.424,0l-3.698-2.325
					c-0.122-0.081-0.197-0.225-0.185-0.375l0.028-0.324v-0.003l-0.021-0.047l0.022,0.047l1.685,1.06
					C172.004,32.082,172.064,32.264,172.211,32.358z"/>
			</g>
			<g>
				<path d="M169.515,24.032l-0.593-0.186c-0.016-0.007-0.033-0.003-0.048,0.004c-0.02,0.006-0.034,0.021-0.037,0.036
					c-0.008,0.02-0.002,0.039,0.003,0.055c0.008,0.017,0.027,0.026,0.041,0.033l0.591,0.188c0.005,0,0.013,0.006,0.013,0.014
					c0.008,0.002,0.008,0.01,0.003,0.017l-0.107,0.34c-0.003,0.014-0.02,0.021-0.034,0.014l-0.09-0.026
					c-0.093-0.028-0.19,0.007-0.244,0.091l-0.637,1.03c-0.021,0.036-0.069,0.054-0.113,0.044l-2.11-0.675
					c-0.041-0.013-0.07-0.054-0.07-0.097l0.072-1.213c0.003-0.094-0.051-0.179-0.141-0.209l-0.021-0.006
					c-0.015-0.004-0.02-0.02-0.018-0.033l0.107-0.34c0-0.008,0.009-0.014,0.012-0.014c0.008-0.004,0.013-0.004,0.021-0.004
					l0.58,0.182c0.013,0.008,0.033,0.008,0.046-0.002c0.018-0.008,0.031-0.022,0.039-0.038c0.01-0.037-0.011-0.073-0.047-0.089
					l-0.58-0.185c-0.083-0.026-0.175,0.023-0.2,0.108l-0.107,0.339c-0.029,0.085,0.021,0.172,0.1,0.203l0.028,0.006
					c0.03,0.011,0.046,0.042,0.046,0.074l-0.069,1.211c-0.008,0.105,0.06,0.205,0.162,0.233l2.11,0.671
					c0.008,0.004,0.019,0.004,0.025,0.008c0.096,0.016,0.192-0.021,0.247-0.105l0.637-1.03c0.019-0.029,0.051-0.043,0.088-0.033
					l0.092,0.033c0.085,0.023,0.175-0.021,0.203-0.105l0.103-0.345C169.646,24.146,169.597,24.06,169.515,24.032z"/>
				<path d="M167.897,24.567c-0.013-0.006-0.033-0.01-0.049-0.004c-0.019,0.008-0.031,0.021-0.038,0.037l-0.252,0.536
					c-0.008,0.021-0.011,0.035-0.005,0.054c0.007,0.021,0.02,0.029,0.035,0.04h0.01c0,0.004,0.003,0.004,0.003,0.004
					c0.034,0.006,0.064-0.011,0.077-0.037l0.254-0.536c0.005-0.019,0.005-0.039,0-0.054
					C167.926,24.59,167.915,24.576,167.897,24.567z"/>
				<path d="M167.196,24.345c-0.013,0-0.033,0.004-0.049,0.014c-0.013,0.011-0.025,0.023-0.028,0.041l-0.105,0.585
					c-0.003,0.034,0.016,0.067,0.052,0.077h0.002h0.003c0.039,0.007,0.074-0.016,0.077-0.051l0.105-0.585
					c0.005-0.018,0-0.036-0.011-0.055C167.232,24.358,167.217,24.352,167.196,24.345z"/>
				<path d="M166.868,24.231L166.868,24.231c-0.016,0-0.037,0.004-0.05,0.019c-0.015,0.01-0.02,0.024-0.025,0.044l-0.066,0.641
					c-0.003,0.03,0.018,0.063,0.047,0.074h0.01l0.005,0.002c0.016,0,0.033-0.002,0.051-0.019c0.017-0.011,0.024-0.027,0.024-0.044
					l0.066-0.64C166.93,24.271,166.906,24.235,166.868,24.231z"/>
				<path d="M167.486,24.456c-0.013,0.007-0.028,0.021-0.033,0.039l-0.18,0.563c-0.011,0.041,0.011,0.078,0.046,0.088
					c0.005,0,0.005,0,0.008,0.003c0.034,0.008,0.064-0.013,0.08-0.047l0.177-0.565c0.01-0.038-0.011-0.074-0.043-0.087
					C167.521,24.446,167.504,24.446,167.486,24.456z"/>
				<path d="M168.383,23.813c0,0.006,0,0.006,0.005,0.006c0.033,0.007,0.067-0.016,0.077-0.045c0.005-0.018,0.005-0.04-0.005-0.055
					c-0.008-0.018-0.021-0.026-0.039-0.034l-1.184-0.377c-0.021-0.006-0.038-0.002-0.054,0.007
					c-0.019,0.006-0.028,0.023-0.036,0.041c-0.01,0.033,0.01,0.073,0.047,0.083L168.383,23.813L168.383,23.813z"/>
				<path d="M168.411,24.492c0.03,0.003,0.066-0.016,0.077-0.05c0.007-0.013,0.005-0.034-0.003-0.051
					c-0.01-0.017-0.025-0.026-0.044-0.033l-1.535-0.487c-0.018-0.004-0.033-0.004-0.051,0.003c-0.017,0.01-0.031,0.023-0.034,0.042
					c-0.008,0.016-0.003,0.035,0.003,0.05c0.007,0.017,0.023,0.031,0.044,0.035l1.535,0.491
					C168.403,24.486,168.408,24.492,168.411,24.492z"/>
				<path d="M166.734,23.372c-0.033-0.01-0.075,0.011-0.085,0.047l0,0c-0.013,0.034,0.008,0.073,0.044,0.084l0.364,0.115
					c0.008,0.002,0.008,0.002,0.01,0.002c0.013,0.004,0.032,0,0.042-0.006c0.018-0.007,0.033-0.021,0.035-0.037
					c0.008-0.019,0.003-0.038-0.002-0.055c-0.011-0.013-0.023-0.026-0.043-0.03l-0.106-0.035l0.057-0.176
					c0.137-0.435,0.601-0.677,1.037-0.54c0.209,0.068,0.378,0.213,0.48,0.411c0.103,0.192,0.123,0.418,0.055,0.627l-0.055,0.176
					l-0.136-0.042c-0.013-0.007-0.033-0.003-0.049,0.003c-0.018,0.008-0.028,0.025-0.036,0.042
					c-0.005,0.017-0.003,0.036,0.005,0.049c0.008,0.018,0.023,0.029,0.042,0.036l0.361,0.116c0.005,0.004,0.01,0.004,0.013,0.004
					c0.031,0.006,0.067-0.017,0.077-0.047c0.01-0.034-0.008-0.073-0.046-0.088l-0.1-0.031l0.053-0.175
					c0.162-0.505-0.117-1.051-0.623-1.211c-0.506-0.158-1.049,0.123-1.21,0.628l-0.054,0.176L166.734,23.372z"/>
				<path d="M168.227,24.665c-0.031-0.021-0.075-0.01-0.096,0.026l-0.313,0.559c-0.01,0.017-0.01,0.034-0.007,0.052
					c0.007,0.017,0.018,0.036,0.032,0.042l0.013,0.008c0.007,0,0.009,0,0.009,0c0.028,0.006,0.059-0.008,0.071-0.033l0.313-0.561
					c0.01-0.019,0.013-0.039,0.008-0.053C168.252,24.688,168.241,24.675,168.227,24.665z"/>
			</g>
		</g>
		<path d="M163.953,19.3c-0.077,0.095-0.18,0.172-0.29,0.227l-0.246,0.107l-0.07-0.057c-0.109-0.095-0.274-0.077-0.369,0.036
			l-1.223,1.479c-0.064,0.075-0.074,0.173-0.046,0.261c0.016,0.042,0.046,0.081,0.08,0.112l0.051,0.041l0,0l-0.072,0.307
			c-0.027,0.118-0.085,0.235-0.164,0.33l-0.295,0.357c-0.025,0.034-0.044,0.077-0.039,0.125c0.003,0.015,0.003,0.029,0.014,0.043
			c0.01,0.027,0.025,0.053,0.051,0.073l0.349,0.291c0.006,0.003,0.008,0.003,0.011,0.006c0.005,0.004,0.005,0.004,0.008,0.007
			l0.354,0.293c0.069,0.061,0.18,0.051,0.242-0.021l0.294-0.359c0.077-0.096,0.18-0.171,0.291-0.22l0.287-0.13l0.098,0.081
			c0.112,0.091,0.279,0.076,0.375-0.035l0.388-0.475l0.049,0.04c0.03,0.024,0.069,0.037,0.11,0.034
			c0.033-0.007,0.069-0.023,0.093-0.053l0.308-0.372c0.054-0.063,0.044-0.154-0.015-0.207l-0.05-0.038l0.34-0.411
			c0.092-0.111,0.076-0.279-0.036-0.37l-0.111-0.095l0.058-0.26c0.027-0.124,0.084-0.235,0.166-0.329l0.293-0.359
			c0.062-0.073,0.054-0.183-0.023-0.239l-0.352-0.294c-0.002-0.002-0.005-0.002-0.01-0.006c0-0.003-0.003-0.003-0.005-0.007
			l-0.354-0.292c-0.036-0.031-0.077-0.042-0.124-0.039c-0.045,0.004-0.087,0.024-0.115,0.062L163.953,19.3z M164.75,21.076
			l-0.363,0.434c-0.016,0.004-0.03,0.015-0.04,0.025l-0.398,0.48c-0.011,0.014-0.013,0.026-0.013,0.047l-0.411,0.494
			c-0.041,0.048-0.113,0.055-0.157,0.013l-1.48-1.225c-0.047-0.038-0.055-0.107-0.014-0.157l1.225-1.476
			c0.039-0.05,0.108-0.058,0.157-0.018l0.1,0.088l0,0l1.226,1.014l0,0c0.005,0,0.005,0,0.005,0l0.146,0.122
			C164.78,20.961,164.785,21.027,164.75,21.076z M164.172,22.101l-0.044-0.036l0.301-0.366l0.04,0.037L164.172,22.101z
			 M162.821,22.599c-0.134,0.06-0.252,0.15-0.345,0.262l-0.301,0.356c-0.005,0.01-0.015,0.013-0.025,0.004l-0.352-0.29
			c-0.002-0.004-0.007-0.008-0.01-0.008c-0.004-0.002-0.009-0.006-0.009-0.01l-0.354-0.288c-0.005-0.01-0.01-0.021-0.002-0.026
			l0.298-0.358c0.09-0.117,0.159-0.249,0.192-0.393l0.057-0.233l1.07,0.886L162.821,22.599z M164.747,19.328
			c0.003,0.004,0.005,0.008,0.01,0.008c0.003,0.002,0.006,0.006,0.006,0.006l0.354,0.296c0.005,0.004,0.008,0.007,0.008,0.01
			c0,0.004,0,0.011-0.003,0.017l-0.297,0.354c-0.094,0.117-0.159,0.25-0.193,0.394l-0.046,0.186l-1.04-0.854l0.177-0.081
			c0.137-0.059,0.257-0.152,0.353-0.264l0.292-0.356c0.008-0.006,0.018-0.01,0.028-0.004L164.747,19.328z"/>
		<g>
			<path d="M156.221,28.46l-0.935,0.467l-0.161-0.325c-0.311-0.616-1.065-0.866-1.688-0.557c-0.618,0.311-0.867,1.067-0.557,1.688
				l0.164,0.326l-1.166,0.583c-0.062,0.034-0.09,0.107-0.064,0.168l2.14,5.235c0.013,0.034,0.041,0.062,0.077,0.075
				c0.031,0.013,0.069,0.013,0.105-0.006l5.133-2.58c0.011-0.008,0.021-0.015,0.03-0.026c0.019-0.017,0.031-0.035,0.038-0.059
				c0.012-0.037,0.004-0.069-0.015-0.102l-2.931-4.841C156.36,28.449,156.283,28.43,156.221,28.46z M154.145,35.813l-2.034-4.986
				l1.053-0.533l0.265,0.529l-0.2,0.102c-0.03,0.018-0.057,0.045-0.067,0.078c-0.01,0.033-0.005,0.07,0.008,0.102
				c0.013,0.028,0.044,0.057,0.077,0.066c0.034,0.007,0.067,0.007,0.098-0.006l0.665-0.338c0.018-0.007,0.029-0.017,0.036-0.026
				c0.016-0.013,0.028-0.032,0.031-0.051c0.015-0.033,0.01-0.067-0.006-0.102c-0.03-0.063-0.112-0.093-0.177-0.057l-0.227,0.115
				l-0.267-0.53l1.77-0.892l0.267,0.529l-0.208,0.107c-0.069,0.03-0.092,0.111-0.062,0.18c0.033,0.062,0.115,0.086,0.175,0.056
				l0.668-0.337c0.015-0.003,0.025-0.014,0.035-0.026c0.017-0.014,0.026-0.03,0.036-0.051c0.011-0.034,0.008-0.066-0.01-0.098
				c-0.014-0.033-0.044-0.058-0.074-0.068c-0.037-0.01-0.07-0.01-0.101,0.008l-0.224,0.11l-0.267-0.531l0.827-0.413l2.788,4.611
				L154.145,35.813z M153.559,28.282c0.234-0.119,0.504-0.14,0.753-0.055c0.254,0.083,0.459,0.259,0.575,0.494l0.164,0.327
				l-1.77,0.89l-0.164-0.327C152.871,29.123,153.07,28.527,153.559,28.282z"/>
		</g>
	</g>
	<path d="M49.511,38.393c-1.73,0-3.138,1.407-3.138,3.144c0,1.735,1.407,3.143,3.138,3.143c1.739,0,3.144-1.407,3.144-3.143
		C52.654,39.8,51.25,38.393,49.511,38.393z M49.511,43.13c-0.875,0-1.591-0.715-1.591-1.594c0-0.881,0.716-1.592,1.591-1.592
		c0.881,0,1.597,0.711,1.597,1.592C51.108,42.415,50.392,43.13,49.511,43.13z"/>
	<path fill="#FFFFFF" d="M46.088,8.917c0,0-20.283,0.681-20.132,8.95c0.174,9.757,15.16,6.947,13.978,12.63
		c-0.578,2.766-4.379,5.063-7.709,6.571c0.82,0.298,1.534,0.806,2.075,1.466c4.987-0.846,10.788-3.036,11.231-8.647
		c0.709-8.912-12.72-5.484-15.535-10.379C26.849,14.033,46.088,8.917,46.088,8.917z"/>
</g>
</svg>
